<svg version="1.1" id="Layer_1" xmlns="http://www.w3.org/2000/svg" x="0" y="0" viewBox="0 0 200 200" xml:space="preserve">
  <style>
    .st0{fill:#bf0025}.st1{fill:#e5002c}.st2{fill:#4e9d5b}.st3{fill:#710307}.st4{fill:#ffccd6}.st5{fill:#ccffd2}
  </style>
  <path class="st0" d="M134.08 127.32c-.04.42-.04.8-.04 1.22 0 7.93 5.03 16.2 16.27 16.77 4.27.19 8.31-1.3 11.4-4.23 3.2-3.05 5.07-7.28 5.07-11.62 0-1.07-.11-2.17-.34-3.2-2.17-9.72-9.19-15.09-18.75-14.37-9.38.64-13.26 9.59-13.61 15.43zm25.16 11.66c-3.24 5.03-10.33 4.19-15.02 1.87-1.83-.91-.72-4.08 1.22-3.13 3.28 1.6 8.69 2.86 11.17-.72 1.22-1.83 3.77.23 2.63 1.98zm4.23-7.7c0 2.17-3.24 2.48-3.24.3 0-2.17 3.24-2.47 3.24-.3z"/>
  <path class="st1" d="M85.56 154.91c-.42-1.26-.76-2.55-1.07-3.85-.08-.23-.15-.5-.19-.72-.42-1.75-.76-3.58-1.03-5.37-.11-.65-.15-1.33-.23-1.98-.15-1.22-.27-2.48-.3-3.7-.04-.72-.08-1.45-.08-2.17 0-.46-.04-.88-.04-1.33 0-1.3.04-2.63.11-3.96.04-.91.15-1.83.23-2.78.04-.38.11-.76.15-1.14.08-.61.15-1.18.23-1.79.08-.42.15-.88.23-1.3.11-.57.19-1.11.3-1.68.11-.46.23-.95.34-1.45.11-.53.23-1.11.38-1.64.11-.5.27-.99.42-1.49.15-.53.3-1.11.46-1.64.15-.5.34-1.03.5-1.52.19-.53.34-1.11.57-1.64.19-.5.38-1.03.61-1.52.23-.53.42-1.11.65-1.64.23-.5.46-.99.69-1.52.27-.53.5-1.11.76-1.64.23-.5.53-.99.76-1.49.27-.53.57-1.07.88-1.6.27-.5.57-.99.88-1.45.3-.53.65-1.07.95-1.56.3-.5.65-.95.95-1.41.34-.5.69-1.03 1.07-1.52.34-.46.69-.91 1.07-1.37.38-.5.8-.99 1.18-1.49.38-.46.76-.88 1.18-1.3.42-.46.88-.95 1.3-1.41.42-.42.84-.8 1.26-1.22.46-.46.95-.88 1.41-1.3.46-.38.91-.76 1.37-1.14.5-.42 1.03-.8 1.56-1.22.5-.34.99-.69 1.49-1.03.34-.23.65-.5 1.03-.72-9.8-22.72-30-34.65-55.65-32.74C21.91 55.66 9.34 84.32 8.19 103c-.08 1.3-.11 2.59-.11 3.85 0 30.57 20.89 52.1 51.99 53.63 8.95.45 17.72-1.49 25.49-5.57zm-38.15-27.79c-12.01-.61-20.28-9.68-19.55-21.69.42-7.05 5.26-17.88 16.77-18.75 11.32-.84 19.9 5.72 22.45 17.11.3 1.3.42 2.63.42 3.96 0 5.26-2.25 10.44-6.14 14.14-3.77 3.63-8.73 5.5-13.95 5.23zm23.14 25.92c0 2.21-3.28 1.64-3.28-.46.04-2.21 3.28-1.63 3.28.46zm-43.87-12.23c-1.3-1.72 1.11-3.96 2.44-2.17 6.56 8.8 17.99 13.91 28.85 13.76 2.06-.04 2.17 3.43.04 3.39-11.82 0-24.13-5.34-31.33-14.98z"/>
  <path class="st2" d="M86.78 158.15c-8.23 4.23-17.46 6.29-26.83 5.83-15.86-.76-29.35-6.78-39.03-16.39-4.65 14.94-4.73 33.31-4.61 38.57 41.73 4.42 70.09-12.65 76.38-16.88a52.98 52.98 0 01-5.91-11.13zm-17.45 17.53c-10.56 6.33-23.06 7.28-35.1 7.17-2.06 0-2.48-3.39-.42-3.39 11.55.08 23.71-.65 33.85-6.78 1.82-1.08 3.42 1.94 1.67 3zm5.79-5.52c0-2.21 3.32-1.94 3.32.19 0 2.25-3.32 1.98-3.32-.19zM96.96 64.66c5.6 5.26 10.21 11.85 13.64 19.67 7.28-4.8 36.74-25.31 56.41-55.19.53-.8 1.6-1.03 2.4-.5.5.34.8.88.8 1.45 0 .34-.08.65-.3.95-14.71 22.33-34.76 39.49-47.34 49.01 2.29-.5 4.65-.91 7.09-1.11 11.89-.88 22.72 1.14 32.02 5.68 23.4-28.47 21.84-62.2 21.23-69.25-28.28-3.28-50.39 1.37-65.75 13.84-16.27 13.23-19.63 31.41-20.2 35.45zm79.54-21.81c-1.64 7.74-4.19 15.09-8.12 21.99-1.07 1.91-3.62-.27-2.59-2.06 3.7-6.52 5.98-13.49 7.62-20.77.46-2.13 3.51-1.25 3.09.84zm1.34-9.49c0 2.17-3.16 1.98-3.16-.19-.01-2.17 3.16-1.98 3.16.19z"/>
  <path class="st1" d="M129.97 82.46c-7.05.53-13.49 2.52-19.21 5.95-15.7 9.38-23.63 28.66-24.55 43.64-.11 1.68-.08 3.32-.08 4.99 0 .72.04 1.49.08 2.21.08 1.11.15 2.21.3 3.32.08.72.15 1.45.27 2.17.19 1.18.42 2.36.65 3.51.11.61.23 1.22.38 1.79.42 1.75.91 3.47 1.52 5.15 7.17 20.35 25.38 33.2 48.71 34.34 13.68.69 26.72-4.15 36.63-13.64 10.29-9.8 16.2-23.4 16.24-37.31 0-3.47-.38-6.97-1.14-10.33-4.15-18.75-14.06-32.4-28.01-39.75-.23-.08-.46-.15-.69-.34l-.04-.04c-8.88-4.56-19.36-6.54-31.06-5.66zm34.64 89.18c-12.12 11.36-29.04 12.81-43.6 5.37-1.87-.95-.57-4.04 1.41-3.01 13.64 7.01 28.85 5.22 40.17-5.11 1.6-1.44 3.51 1.34 2.02 2.75zm4.92-6.74c0 2.1-3.16 2.48-3.16.3.03-2.13 3.16-2.51 3.16-.3zm.27-39.41c.3 1.3.42 2.63.42 3.96 0 5.26-2.25 10.44-6.14 14.14-3.77 3.62-8.77 5.45-13.95 5.18-12.01-.61-20.28-9.68-19.55-21.69.42-7.05 5.26-17.88 16.77-18.75 11.32-.8 19.93 5.76 22.45 17.16z"/>
  <path class="st0" d="M63.69 104.56c-2.17-9.72-9.19-15.09-18.75-14.37-9.3.69-13.19 9.64-13.53 15.47-.04.42-.04.8-.04 1.22 0 7.93 5.03 16.2 16.27 16.77 4.27.19 8.31-1.3 11.4-4.23 3.96-3.84 5.79-9.6 4.65-14.86zm-9.49 2.82c0-2.21 3.32-2.06 3.32.08-.05 2.25-3.32 2.09-3.32-.08zm-12.62 10.29c-1.68-1.18-.23-4.27 1.49-3.01 2.93 2.13 5.95.76 8.5-1.3 1.49-1.18 3.24 1.49 1.91 2.67-3.32 3.05-8.01 4.39-11.9 1.64z"/>
  <path class="st2" d="M93.87 61.95c.61-3.2 1.91-8.42 4.73-14.37C62.09 10 23.9 14.04 16.39 15.26c-.15 25.77 4.76 41.54 6.82 47.07 7.17-6.67 16.54-11.47 28.55-12.39 16.58-1.22 30.98 3.05 42.11 12.01zM25.5 47.31c-2.36-6.97-4.95-14.33-3.09-21.73.53-2.1 3.58-1.56 3.16.57-1.37 7.09.76 13.49 3.01 20.12.69 2.11-2.36 3.1-3.08 1.04z"/>
  <path class="st3" d="M130.58 127.12c-.72 12.01 7.55 21.08 19.55 21.69 5.22.27 10.18-1.6 13.95-5.18 3.89-3.7 6.14-8.88 6.14-14.14 0-1.33-.15-2.67-.42-3.96-2.52-11.4-11.13-17.95-22.45-17.11-11.51.79-16.32 11.62-16.77 18.7zm35.82-.87c.23 1.03.34 2.13.34 3.2 0 4.35-1.83 8.58-5.07 11.62-3.09 2.93-7.13 4.46-11.4 4.23-11.24-.53-16.27-8.8-16.27-16.77 0-.42 0-.8.04-1.22.34-5.83 4.27-14.79 13.53-15.47 9.65-.68 16.66 4.69 18.83 14.41zM67.54 107.8c0-1.33-.15-2.67-.42-3.96-2.52-11.4-11.13-17.95-22.45-17.11-11.51.84-16.35 11.66-16.77 18.75-.76 12.01 7.51 21.08 19.55 21.69 5.22.27 10.18-1.6 13.95-5.18 3.89-3.78 6.14-8.93 6.14-14.19zM47.6 123.66c-11.24-.53-16.27-8.8-16.27-16.77 0-.42 0-.8.04-1.22.34-5.83 4.27-14.79 13.53-15.47 9.6-.72 16.62 4.65 18.75 14.37 1.14 5.22-.69 11.01-4.69 14.83-3.09 2.96-7.13 4.45-11.36 4.26z"/>
  <path class="st3" d="M100.24 44.3C58.62 2.19 14.67 12.02 14.25 12.13c-.76.19-1.33.88-1.33 1.68-.46 30.11 5.83 47.11 7.62 51.3C10.36 76.24 5.49 91.3 4.8 102.81a69.45 69.45 0 00-.11 4.08c0 14.94 4.99 27.98 13.61 37.85-.08.11-.15.23-.19.34-6.21 18.41-5.22 41.77-5.18 42.76.04.84.69 1.56 1.52 1.64 43.79 5.15 73.79-12.92 80.34-17.38 9.87 12.43 25.04 19.97 43.11 20.89 14.64.72 28.59-4.46 39.22-14.6 10.98-10.48 17.3-24.96 17.3-39.83 0-3.74-.42-7.47-1.22-11.09-4.19-18.9-14.33-33.04-28.4-41.09 19.06-23.52 21.88-50.42 21.88-63.99 0-5.41-.42-8.69-.46-8.8-.11-.76-.72-1.37-1.52-1.49-29.96-3.74-53.44 1.14-69.79 14.45-6.82 5.56-11.47 11.85-14.67 17.75zM16.35 15.26C23.86 14 62.05 10 98.56 47.58c-2.78 5.95-4.12 11.17-4.73 14.37-11.09-8.96-25.53-13.19-42.07-11.97-12.01.88-21.42 5.68-28.55 12.39-2.1-5.57-6.98-21.34-6.86-47.11zm-8.2 91.59c0-1.26.04-2.55.11-3.85C9.4 84.29 21.98 55.66 52.01 53.45c25.65-1.91 45.85 10.02 55.65 32.74-.34.23-.69.5-1.03.72-.5.34-.99.69-1.49 1.03-.53.38-1.03.8-1.56 1.22-.46.38-.91.76-1.37 1.14-.5.42-.95.88-1.41 1.3-.42.42-.84.8-1.26 1.22-.46.46-.88.91-1.3 1.41-.38.42-.8.84-1.18 1.3-.42.5-.8.99-1.18 1.49-.34.46-.72.91-1.07 1.37-.38.5-.72 1.03-1.07 1.52-.34.46-.65.95-.95 1.41-.34.53-.65 1.03-.95 1.56-.3.5-.61.95-.88 1.45-.3.53-.57 1.07-.88 1.6-.27.5-.53.99-.76 1.49-.27.53-.5 1.07-.76 1.64-.23.5-.46.99-.69 1.52-.23.53-.46 1.11-.65 1.64-.19.5-.42 1.03-.61 1.52-.19.53-.38 1.11-.57 1.64-.15.5-.34 1.03-.5 1.52-.15.53-.3 1.11-.46 1.64-.15.5-.3.99-.42 1.49-.15.57-.27 1.11-.38 1.64-.11.5-.23.95-.34 1.45-.11.57-.23 1.14-.3 1.68-.08.42-.15.88-.23 1.3-.11.61-.15 1.18-.23 1.79-.04.38-.11.76-.15 1.14-.11.95-.19 1.87-.23 2.78a65.43 65.43 0 00-.11 3.96c0 .46.04.88.04 1.33 0 .72.04 1.45.08 2.17.08 1.26.19 2.48.3 3.7.08.65.15 1.33.23 1.98a61.4 61.4 0 001.03 5.37c.08.23.15.5.19.72.34 1.3.69 2.59 1.07 3.85-7.78 4.12-16.54 6.02-25.46 5.6-31.13-1.54-52.02-23.07-52.02-53.64zm8.16 79.31c-.11-5.3-.08-23.63 4.61-38.57 9.72 9.6 23.21 15.59 39.03 16.39 9.38.46 18.6-1.56 26.83-5.83 1.56 4 3.54 7.74 5.91 11.13-6.29 4.27-34.64 21.34-76.38 16.88zM161.07 88.1l.04.04c.19.15.42.27.69.34 13.95 7.36 23.86 20.96 28.01 39.75.76 3.39 1.14 6.86 1.14 10.33 0 13.91-5.91 27.48-16.24 37.31-9.95 9.45-22.94 14.29-36.63 13.64-23.33-1.14-41.51-13.99-48.71-34.34a47.35 47.35 0 01-1.52-5.15c-.15-.61-.27-1.18-.38-1.79-.27-1.14-.5-2.32-.65-3.51-.11-.72-.19-1.45-.27-2.17-.11-1.11-.23-2.21-.3-3.32-.04-.72-.08-1.49-.08-2.21-.04-1.64-.04-3.32.08-4.99.91-14.94 8.84-34.23 24.55-43.64 5.72-3.43 12.2-5.41 19.21-5.95 11.66-.86 22.14 1.12 31.06 5.66zm21.84-72.73c.65 7.05 2.17 40.82-21.23 69.25-9.3-4.54-20.12-6.56-32.02-5.68-2.44.19-4.76.57-7.09 1.11 12.58-9.49 32.63-26.64 47.34-49.01.19-.3.3-.65.3-.95 0-.57-.27-1.11-.8-1.45-.8-.53-1.91-.3-2.4.5-19.7 29.88-49.13 50.39-56.41 55.19-3.43-7.81-8.04-14.41-13.64-19.67.57-4.04 3.93-22.22 20.2-35.45 15.36-12.46 37.47-17.11 65.75-13.84z"/>
  <path class="st4" d="M58.01 152.43c-10.86.15-22.33-4.99-28.85-13.76-1.33-1.79-3.74.46-2.44 2.17 7.2 9.64 19.48 14.94 31.37 15.02 2.09-.04 1.98-3.47-.08-3.43zM67.31 152.59c0 2.1 3.28 2.67 3.28.46-.04-2.1-3.28-2.68-3.28-.46zM51.53 113.4c-2.55 2.02-5.53 3.43-8.5 1.3-1.72-1.26-3.16 1.83-1.49 3.01 3.89 2.74 8.61 1.45 11.89-1.6 1.34-1.26-.38-3.93-1.9-2.71zM57.47 107.5c0-2.13-3.32-2.32-3.32-.08.05 2.13 3.32 2.29 3.32.08zM156.61 137c-2.44 3.58-7.89 2.36-11.17.72-1.94-.95-3.05 2.25-1.22 3.13 4.69 2.29 11.78 3.16 15.02-1.87 1.14-1.75-1.41-3.81-2.63-1.98zM160.23 131.58c0 2.17 3.24 1.91 3.24-.3 0-2.17-3.24-1.87-3.24.3zM122.42 174.01c-1.94-.99-3.28 2.06-1.41 3.01 14.56 7.47 31.48 5.98 43.6-5.37 1.49-1.41-.42-4.19-2.02-2.78-11.32 10.36-26.53 12.15-40.17 5.14zM166.4 165.2c0 2.17 3.16 1.79 3.16-.3-.03-2.21-3.16-1.83-3.16.3z"/>
  <path class="st5" d="M173.42 42.02c-1.64 7.28-3.93 14.25-7.62 20.77-1.03 1.79 1.52 3.96 2.59 2.06 3.93-6.9 6.44-14.25 8.12-21.99.41-2.1-2.64-2.98-3.09-.84zM174.67 33.17c0 2.17 3.16 2.36 3.16.19s-3.16-2.36-3.16-.19zM28.58 46.28c-2.25-6.67-4.38-13.04-3.01-20.12.42-2.13-2.63-2.67-3.16-.57-1.87 7.43.76 14.75 3.09 21.73.72 2.05 3.77 1.06 3.08-1.04zM33.8 179.49c-2.06 0-1.64 3.35.42 3.39 12.04.11 24.55-.84 35.1-7.17 1.79-1.07.15-4.08-1.68-2.97-10.13 6.07-22.25 6.83-33.84 6.75zM75.12 170.16c0 2.13 3.32 2.4 3.32.19 0-2.14-3.32-2.4-3.32-.19z"/>
</svg>
